<mxfile host="app.diagrams.net" modified="2023-12-26T14:55:30.707Z" agent="Mozilla/5.0 (Windows NT 10.0; Win64; x64) AppleWebKit/537.36 (KHTML, like Gecko) Chrome/98.0.4758.82 Safari/537.36" etag="Yu-Uox4MSw5Ntet9EqP2" version="22.1.11" type="github">
  <diagram name="第 1 页" id="fzIRlkugc9Y6fZbD00oU">
    <mxGraphModel dx="1707" dy="1565" grid="1" gridSize="10" guides="1" tooltips="1" connect="1" arrows="1" fold="1" page="1" pageScale="1" pageWidth="827" pageHeight="1169" math="0" shadow="0">
      <root>
        <mxCell id="0" />
        <mxCell id="1" parent="0" />
        <mxCell id="Y9Q1VCPNS9A9XChxBmLx-1" value="FORWARD&lt;br&gt;GH1 GL2" style="rounded=0;whiteSpace=wrap;html=1;" vertex="1" parent="1">
          <mxGeometry x="-370" y="240" width="120" height="60" as="geometry" />
        </mxCell>
        <mxCell id="Y9Q1VCPNS9A9XChxBmLx-2" value="STOP&lt;br&gt;HEN=0&lt;br&gt;PWMH=0" style="rounded=0;whiteSpace=wrap;html=1;" vertex="1" parent="1">
          <mxGeometry x="100" y="240" width="120" height="60" as="geometry" />
        </mxCell>
        <mxCell id="Y9Q1VCPNS9A9XChxBmLx-3" value="" style="endArrow=classic;html=1;rounded=0;entryX=0;entryY=0.5;entryDx=0;entryDy=0;exitX=1;exitY=0.5;exitDx=0;exitDy=0;" edge="1" parent="1" source="Y9Q1VCPNS9A9XChxBmLx-1" target="Y9Q1VCPNS9A9XChxBmLx-2">
          <mxGeometry width="50" height="50" relative="1" as="geometry">
            <mxPoint x="-300" y="370" as="sourcePoint" />
            <mxPoint x="170" y="370" as="targetPoint" />
            <Array as="points" />
          </mxGeometry>
        </mxCell>
        <mxCell id="Y9Q1VCPNS9A9XChxBmLx-8" value="STOP || DSMON_LS2 || DSMON_GH1" style="edgeLabel;html=1;align=center;verticalAlign=middle;resizable=0;points=[];" vertex="1" connectable="0" parent="Y9Q1VCPNS9A9XChxBmLx-3">
          <mxGeometry x="0.0889" y="-2" relative="1" as="geometry">
            <mxPoint as="offset" />
          </mxGeometry>
        </mxCell>
        <mxCell id="Y9Q1VCPNS9A9XChxBmLx-6" value="FORWARD&lt;br&gt;GH1 GL2" style="rounded=0;whiteSpace=wrap;html=1;" vertex="1" parent="1">
          <mxGeometry x="500" y="240" width="120" height="60" as="geometry" />
        </mxCell>
        <mxCell id="Y9Q1VCPNS9A9XChxBmLx-7" value="" style="endArrow=classic;html=1;rounded=0;entryX=0;entryY=0.25;entryDx=0;entryDy=0;exitX=1;exitY=0.25;exitDx=0;exitDy=0;" edge="1" parent="1" source="Y9Q1VCPNS9A9XChxBmLx-2" target="Y9Q1VCPNS9A9XChxBmLx-6">
          <mxGeometry width="50" height="50" relative="1" as="geometry">
            <mxPoint x="340" y="250" as="sourcePoint" />
            <mxPoint x="430" y="250" as="targetPoint" />
          </mxGeometry>
        </mxCell>
        <mxCell id="Y9Q1VCPNS9A9XChxBmLx-9" value="RESERVE" style="edgeLabel;html=1;align=center;verticalAlign=middle;resizable=0;points=[];" vertex="1" connectable="0" parent="Y9Q1VCPNS9A9XChxBmLx-7">
          <mxGeometry x="0.2" y="1" relative="1" as="geometry">
            <mxPoint x="-14" as="offset" />
          </mxGeometry>
        </mxCell>
        <mxCell id="Y9Q1VCPNS9A9XChxBmLx-10" value="" style="endArrow=classic;html=1;rounded=0;exitX=0;exitY=0.75;exitDx=0;exitDy=0;entryX=1;entryY=0.75;entryDx=0;entryDy=0;" edge="1" parent="1" source="Y9Q1VCPNS9A9XChxBmLx-6" target="Y9Q1VCPNS9A9XChxBmLx-2">
          <mxGeometry width="50" height="50" relative="1" as="geometry">
            <mxPoint x="140" y="260" as="sourcePoint" />
            <mxPoint x="230" y="260" as="targetPoint" />
          </mxGeometry>
        </mxCell>
        <mxCell id="Y9Q1VCPNS9A9XChxBmLx-11" value="STOP" style="edgeLabel;html=1;align=center;verticalAlign=middle;resizable=0;points=[];" vertex="1" connectable="0" parent="Y9Q1VCPNS9A9XChxBmLx-10">
          <mxGeometry x="0.0889" y="-2" relative="1" as="geometry">
            <mxPoint as="offset" />
          </mxGeometry>
        </mxCell>
        <mxCell id="Y9Q1VCPNS9A9XChxBmLx-16" value="(DSMON_LS2==1)&amp;nbsp;" style="rhombus;whiteSpace=wrap;html=1;" vertex="1" parent="1">
          <mxGeometry x="-180" y="515" width="170" height="70" as="geometry" />
        </mxCell>
        <mxCell id="Y9Q1VCPNS9A9XChxBmLx-17" value="" style="endArrow=classic;html=1;rounded=0;entryX=1;entryY=0.5;entryDx=0;entryDy=0;" edge="1" parent="1" target="Y9Q1VCPNS9A9XChxBmLx-16">
          <mxGeometry width="50" height="50" relative="1" as="geometry">
            <mxPoint x="160" y="300" as="sourcePoint" />
            <mxPoint x="250" y="170" as="targetPoint" />
            <Array as="points">
              <mxPoint x="160" y="550" />
            </Array>
          </mxGeometry>
        </mxCell>
        <mxCell id="Y9Q1VCPNS9A9XChxBmLx-18" value="FORWARD" style="edgeLabel;html=1;align=center;verticalAlign=middle;resizable=0;points=[];" vertex="1" connectable="0" parent="Y9Q1VCPNS9A9XChxBmLx-17">
          <mxGeometry x="-0.329" y="-1" relative="1" as="geometry">
            <mxPoint x="1" y="39" as="offset" />
          </mxGeometry>
        </mxCell>
        <mxCell id="Y9Q1VCPNS9A9XChxBmLx-19" value="PWM==100" style="rhombus;whiteSpace=wrap;html=1;" vertex="1" parent="1">
          <mxGeometry x="-180" y="380" width="170" height="70" as="geometry" />
        </mxCell>
        <mxCell id="Y9Q1VCPNS9A9XChxBmLx-20" value="" style="endArrow=classic;html=1;rounded=0;exitX=0.5;exitY=0;exitDx=0;exitDy=0;" edge="1" parent="1" source="Y9Q1VCPNS9A9XChxBmLx-16" target="Y9Q1VCPNS9A9XChxBmLx-19">
          <mxGeometry width="50" height="50" relative="1" as="geometry">
            <mxPoint x="200" y="220" as="sourcePoint" />
            <mxPoint x="250" y="170" as="targetPoint" />
            <Array as="points" />
          </mxGeometry>
        </mxCell>
        <mxCell id="Y9Q1VCPNS9A9XChxBmLx-21" value="YES" style="edgeLabel;html=1;align=center;verticalAlign=middle;resizable=0;points=[];" vertex="1" connectable="0" parent="Y9Q1VCPNS9A9XChxBmLx-20">
          <mxGeometry x="-0.36" y="3" relative="1" as="geometry">
            <mxPoint x="-3" y="-4" as="offset" />
          </mxGeometry>
        </mxCell>
        <mxCell id="Y9Q1VCPNS9A9XChxBmLx-22" value="" style="endArrow=classic;html=1;rounded=0;exitX=0;exitY=0.5;exitDx=0;exitDy=0;entryX=0.5;entryY=1;entryDx=0;entryDy=0;" edge="1" parent="1" source="Y9Q1VCPNS9A9XChxBmLx-19" target="Y9Q1VCPNS9A9XChxBmLx-1">
          <mxGeometry width="50" height="50" relative="1" as="geometry">
            <mxPoint x="200" y="220" as="sourcePoint" />
            <mxPoint x="250" y="170" as="targetPoint" />
            <Array as="points">
              <mxPoint x="-310" y="415" />
            </Array>
          </mxGeometry>
        </mxCell>
        <mxCell id="Y9Q1VCPNS9A9XChxBmLx-26" value="YES" style="edgeLabel;html=1;align=center;verticalAlign=middle;resizable=0;points=[];" vertex="1" connectable="0" parent="Y9Q1VCPNS9A9XChxBmLx-22">
          <mxGeometry x="-0.4578" y="1" relative="1" as="geometry">
            <mxPoint as="offset" />
          </mxGeometry>
        </mxCell>
        <mxCell id="Y9Q1VCPNS9A9XChxBmLx-23" value="" style="endArrow=classic;html=1;rounded=0;exitX=1;exitY=0.5;exitDx=0;exitDy=0;entryX=0.25;entryY=1;entryDx=0;entryDy=0;" edge="1" parent="1" source="Y9Q1VCPNS9A9XChxBmLx-19" target="Y9Q1VCPNS9A9XChxBmLx-2">
          <mxGeometry width="50" height="50" relative="1" as="geometry">
            <mxPoint x="-210" y="220" as="sourcePoint" />
            <mxPoint x="130" y="300" as="targetPoint" />
            <Array as="points">
              <mxPoint x="130" y="415" />
            </Array>
          </mxGeometry>
        </mxCell>
        <mxCell id="Y9Q1VCPNS9A9XChxBmLx-27" value="NO" style="edgeLabel;html=1;align=center;verticalAlign=middle;resizable=0;points=[];" vertex="1" connectable="0" parent="Y9Q1VCPNS9A9XChxBmLx-23">
          <mxGeometry x="-0.0593" y="-2" relative="1" as="geometry">
            <mxPoint x="-51" y="-2" as="offset" />
          </mxGeometry>
        </mxCell>
        <mxCell id="Y9Q1VCPNS9A9XChxBmLx-24" value="" style="endArrow=classic;html=1;rounded=0;" edge="1" parent="1" source="Y9Q1VCPNS9A9XChxBmLx-16">
          <mxGeometry width="50" height="50" relative="1" as="geometry">
            <mxPoint x="20" y="190" as="sourcePoint" />
            <mxPoint x="-310" y="300" as="targetPoint" />
            <Array as="points">
              <mxPoint x="-310" y="550" />
            </Array>
          </mxGeometry>
        </mxCell>
        <mxCell id="Y9Q1VCPNS9A9XChxBmLx-25" value="NO" style="edgeLabel;html=1;align=center;verticalAlign=middle;resizable=0;points=[];" vertex="1" connectable="0" parent="Y9Q1VCPNS9A9XChxBmLx-24">
          <mxGeometry x="-0.6107" y="-1" relative="1" as="geometry">
            <mxPoint x="4" y="1" as="offset" />
          </mxGeometry>
        </mxCell>
        <mxCell id="Y9Q1VCPNS9A9XChxBmLx-28" value="PWM==100" style="rhombus;whiteSpace=wrap;html=1;" vertex="1" parent="1">
          <mxGeometry x="300" y="380" width="170" height="70" as="geometry" />
        </mxCell>
        <mxCell id="Y9Q1VCPNS9A9XChxBmLx-29" value="(DSMON_LS2==1)&amp;nbsp;" style="rhombus;whiteSpace=wrap;html=1;" vertex="1" parent="1">
          <mxGeometry x="320" y="515" width="170" height="70" as="geometry" />
        </mxCell>
        <mxCell id="Y9Q1VCPNS9A9XChxBmLx-30" value="DSMON_LS2" style="rounded=1;whiteSpace=wrap;html=1;" vertex="1" parent="1">
          <mxGeometry x="-80" y="20" width="120" height="60" as="geometry" />
        </mxCell>
        <mxCell id="Y9Q1VCPNS9A9XChxBmLx-31" value="SH1=STB" style="rounded=1;whiteSpace=wrap;html=1;" vertex="1" parent="1">
          <mxGeometry x="-240" y="-60" width="120" height="60" as="geometry" />
        </mxCell>
        <mxCell id="Y9Q1VCPNS9A9XChxBmLx-32" value="" style="endArrow=classic;html=1;rounded=0;entryX=0;entryY=0.5;entryDx=0;entryDy=0;exitX=0.5;exitY=0;exitDx=0;exitDy=0;" edge="1" parent="1" source="Y9Q1VCPNS9A9XChxBmLx-1" target="Y9Q1VCPNS9A9XChxBmLx-31">
          <mxGeometry width="50" height="50" relative="1" as="geometry">
            <mxPoint x="-80" y="280" as="sourcePoint" />
            <mxPoint x="-30" y="230" as="targetPoint" />
            <Array as="points">
              <mxPoint x="-310" y="-30" />
            </Array>
          </mxGeometry>
        </mxCell>
        <mxCell id="Y9Q1VCPNS9A9XChxBmLx-33" value="SH2=STB" style="rounded=1;whiteSpace=wrap;html=1;" vertex="1" parent="1">
          <mxGeometry x="-240" y="20" width="120" height="60" as="geometry" />
        </mxCell>
        <mxCell id="Y9Q1VCPNS9A9XChxBmLx-34" value="" style="endArrow=classic;html=1;rounded=0;exitX=1;exitY=0.5;exitDx=0;exitDy=0;" edge="1" parent="1" source="Y9Q1VCPNS9A9XChxBmLx-33" target="Y9Q1VCPNS9A9XChxBmLx-30">
          <mxGeometry width="50" height="50" relative="1" as="geometry">
            <mxPoint x="-80" y="140" as="sourcePoint" />
            <mxPoint x="-30" y="90" as="targetPoint" />
          </mxGeometry>
        </mxCell>
        <mxCell id="Y9Q1VCPNS9A9XChxBmLx-35" value="" style="endArrow=classic;html=1;rounded=0;entryX=0;entryY=0.5;entryDx=0;entryDy=0;exitX=0.5;exitY=0;exitDx=0;exitDy=0;" edge="1" parent="1" source="Y9Q1VCPNS9A9XChxBmLx-1" target="Y9Q1VCPNS9A9XChxBmLx-33">
          <mxGeometry width="50" height="50" relative="1" as="geometry">
            <mxPoint x="-80" y="280" as="sourcePoint" />
            <mxPoint x="-30" y="230" as="targetPoint" />
            <Array as="points">
              <mxPoint x="-310" y="50" />
            </Array>
          </mxGeometry>
        </mxCell>
        <mxCell id="Y9Q1VCPNS9A9XChxBmLx-36" value="SH1=STG" style="rounded=1;whiteSpace=wrap;html=1;" vertex="1" parent="1">
          <mxGeometry x="-240" y="110" width="120" height="60" as="geometry" />
        </mxCell>
        <mxCell id="Y9Q1VCPNS9A9XChxBmLx-37" value="" style="endArrow=classic;html=1;rounded=0;exitX=0.5;exitY=0;exitDx=0;exitDy=0;entryX=0;entryY=0.5;entryDx=0;entryDy=0;" edge="1" parent="1" source="Y9Q1VCPNS9A9XChxBmLx-1" target="Y9Q1VCPNS9A9XChxBmLx-36">
          <mxGeometry width="50" height="50" relative="1" as="geometry">
            <mxPoint x="-80" y="150" as="sourcePoint" />
            <mxPoint x="-30" y="100" as="targetPoint" />
            <Array as="points">
              <mxPoint x="-310" y="140" />
            </Array>
          </mxGeometry>
        </mxCell>
        <mxCell id="Y9Q1VCPNS9A9XChxBmLx-38" value="DSMON_HS1" style="rounded=1;whiteSpace=wrap;html=1;" vertex="1" parent="1">
          <mxGeometry x="-80" y="110" width="120" height="60" as="geometry" />
        </mxCell>
      </root>
    </mxGraphModel>
  </diagram>
</mxfile>
